<svg width="394" height="512" viewBox="0 0 394 512" fill="none" xmlns="http://www.w3.org/2000/svg">
    <g opacity="0.8">
        <path
            d="M140.239 135C140.239 83.877 173.601 40.554 219.739 25.593C208.557 21.968 196.629 20 184.239 20C120.726 20 69.239 71.487 69.239 135C69.239 198.513 120.726 250 184.239 250C196.629 250 208.557 248.032 219.739 244.407C173.601 229.446 140.239 186.123 140.239 135Z"
            fill="#C2D9EF" />
    </g>
    <path
        d="M374 512C362.954 512 354 503.046 354 492C354 413.701 290.299 350 212 350H182C103.701 350 40 413.701 40 492C40 503.046 31.046 512 20 512C8.954 512 0 503.046 0 492C0 391.645 81.645 310 182 310H212C312.355 310 394 391.645 394 492C394 503.046 385.046 512 374 512Z"
        fill="#77DDDA" />
    <path
        d="M195 270C120.561 270 60 209.439 60 135C60 60.561 120.561 0 195 0C269.439 0 330 60.561 330 135C330 209.439 269.439 270 195 270ZM195 40C142.617 40 100 82.617 100 135C100 187.383 142.617 230 195 230C247.383 230 290 187.383 290 135C290 82.617 247.383 40 195 40Z"
        fill="#A677DD" />
</svg>
